Coordinates
version=1
nRows=26
nColumns=24
inDegrees=yes

Units are S.I. units (second, meters, Newtons, ...)
Angles are in degrees.

endheader
time	pelvis_tilt	pelvis_list	pelvis_rotation	pelvis_tx	pelvis_ty	pelvis_tz	hip_flexion_r	hip_adduction_r	hip_rotation_r	knee_angle_r	ankle_angle_r	subtalar_angle_r	mtp_angle_r	hip_flexion_l	hip_adduction_l	hip_rotation_l	knee_angle_l	ankle_angle_l	subtalar_angle_l	mtp_angle_l	lumbar_extension	lumbar_bending	lumbar_rotation
      4.68000000	     -9.86519304	     -2.53030601	     12.83211136	     -0.58783600	     -0.04675301	      0.56193613	     36.87380828	     -4.31897036	    -25.77525450	    -10.98628187	     -1.12950286	      8.64977917	      2.84336516	     -4.89830204	     -0.34226862	     -4.90718081	    -15.98462625	     20.17059958	     23.97864705	     -6.87717423	      7.40108460	     -0.65403868	    -17.11419776
      4.68500000	     -9.82801748	     -2.85916488	     12.92755710	     -0.58033924	     -0.04804581	      0.56200445	     36.89217410	     -4.00546066	    -25.89205511	    -11.47563687	     -1.53377547	      8.32816021	      3.02675344	     -5.04850642	     -0.93445737	     -5.30616425	    -16.60575717	     20.28822527	     24.68552972	     -6.66870380	      7.48254724	     -0.28924389	    -17.17277685
      4.69000000	     -9.81005052	     -3.20871207	     13.04592653	     -0.57280677	     -0.04931103	      0.56202092	     36.93290386	     -3.70587318	    -25.97003059	    -12.03166505	     -2.05169020	      7.88877093	      3.20724524	     -5.16226295	     -1.53578947	     -5.56772592	    -17.23933461	     20.33158960	     25.23119749	     -6.43161265	      7.59689613	      0.09525282	    -17.27320115
      4.69500000	     -9.79408523	     -3.57539999	     13.15925522	     -0.56524004	     -0.05051633	      0.56203345	     36.99322216	     -3.40539410	    -26.03066692	    -12.66563342	     -2.69701669	      7.32407282	      3.35100505	     -5.25930313	     -2.15432371	     -5.79314320	    -17.88544057	     20.29656406	     25.71754886	     -6.16329428	      7.72513846	      0.50295673	    -17.38125288
      4.70000000	     -9.77432062	     -3.96934704	     13.23344687	     -0.55763533	     -0.05167552	      0.56209596	     37.07519510	     -3.06941709	    -26.03540200	    -13.36734112	     -3.44430028	      6.61314712	      3.46044663	     -5.33884831	     -2.80442093	     -6.02819075	    -18.56505944	     20.20553348	     26.18206129	     -5.83811751	      7.85929345	      0.94566311	    -17.44210961
      4.70500000	     -9.75097341	     -4.38438821	     13.27328025	     -0.55000398	     -0.05276278	      0.56218643	     37.18204257	     -2.70861057	    -25.97700836	    -14.14073097	     -4.26794701	      5.74490273	      3.50569219	     -5.40197419	     -3.47764809	     -6.27254981	    -19.27319810	     20.03437679	     26.61671357	     -5.44694769	      7.99936256	      1.42396033	    -17.45081978
      4.71000000	     -9.74328486	     -4.84991092	     13.30705256	     -0.54234280	     -0.05377659	      0.56220751	     37.32543729	     -2.32757802	    -25.90058601	    -14.97414381	     -5.10095243	      4.87202226	      3.42690219	     -5.41376205	     -4.18032357	     -6.37464284	    -20.02391821	     19.79762044	     26.86169130	     -5.07878503	      8.17791747	      1.96705714	    -17.42309001
      4.71500000	     -9.68589346	     -5.25449655	     13.22337382	     -0.53470890	     -0.05468621	      0.56253048	     37.47401791	     -1.89978211	    -25.57864344	    -15.90991132	     -5.97436055	      3.52524450	      3.25934946	     -5.47362557	     -4.87863990	     -6.84320609	    -20.81552852	     19.41563878	     27.45822203	     -4.39644199	      8.26872060	      2.45738518	    -17.29902780
      4.72000000	     -9.64927428	     -5.70601891	     13.16119695	     -0.52705766	     -0.05552199	      0.56275418	     37.66275848	     -1.46763488	    -25.26720467	    -16.91369661	     -6.74076553	      2.22019111	      2.94436860	     -5.46419884	     -5.60203044	     -7.10863197	    -21.66048363	     18.93144046	     27.84477552	     -3.60234159	      8.40334420	      3.00094680	    -17.13712104
      4.72500000	     -9.61418274	     -6.15402955	     13.04545111	     -0.51938417	     -0.05625931	      0.56303223	     37.87646691	     -1.00442921	    -24.84514651	    -17.98274151	     -7.41979114	      0.85444019	      2.46325440	     -5.42888079	     -6.32429896	     -7.43009332	    -22.55569427	     18.29797333	     28.20819827	     -2.64931069	      8.53806950	      3.55373121	    -16.94694324
      4.73000000	     -9.58050377	     -6.59343934	     12.90304374	     -0.51171938	     -0.05690916	      0.56334083	     38.11038845	     -0.52690555	    -24.34121504	    -19.11198436	     -7.98049091	     -0.53647913	      1.85793201	     -5.35547003	     -7.04225754	     -7.75052546	    -23.51703220	     17.52578052	     28.55431279	     -1.54725871	      8.66904186	      4.10232355	    -16.73964167
      4.73500000	     -9.55195291	     -7.03188026	     12.72760279	     -0.50402690	     -0.05746883	      0.56369858	     38.35040238	     -0.01682580	    -23.79472043	    -20.26403424	     -8.39081544	     -1.85761017	      1.15949063	     -5.24112632	     -7.76445202	     -8.06519755	    -24.53343375	     16.55850938	     28.86033277	     -0.13125010	      8.80553942	      4.65160826	    -16.47909684
      4.74000000	     -9.52234079	     -7.44171900	     12.54250378	     -0.49636402	     -0.05793224	      0.56406943	     38.57957420	      0.49737000	    -23.16391736	    -21.41328441	     -8.70152232	     -3.18055647	      0.54349888	     -5.07447268	     -8.47116710	     -8.40522227	    -25.65836666	     15.45726645	     29.16730911	      1.21361753	      8.93266225	      5.17557875	    -16.22671928
      4.74500000	     -9.44861050	     -7.81726749	     12.41031492	     -0.48873956	     -0.05820026	      0.56438421	     38.72260232	      0.97647094	    -22.60173668	    -22.52688969	     -8.84249312	     -4.29679518	     -0.06683098	     -4.90933482	     -9.15066070	     -8.60192514	    -26.77448411	     13.99563828	     29.30427881	      3.39516123	      9.00183985	      5.65932245	    -16.03495955
      4.75000000	     -9.45391708	     -8.20969438	     12.16235496	     -0.48106128	     -0.05854850	      0.56489387	     38.91990077	      1.57654536	    -21.86200678	    -23.53932660	     -8.96790906	     -5.49673754	     -0.35050237	     -4.60162902	     -9.86256110	     -8.95073067	    -28.12083628	     12.66763175	     29.61844846	      4.42845101	      9.15708805	      6.15699696	    -15.75331578
      4.75500000	     -9.37641247	     -8.51446703	     11.97250678	     -0.47350512	     -0.05866926	      0.56537169	     38.98656345	      2.09035309	    -21.28597504	    -24.51476473	     -8.96893357	     -6.54463180	     -0.51063077	     -4.34484249	    -10.50387448	     -9.18812497	    -29.40720041	     10.86578231	     29.73230689	      6.74343007	      9.18421675	      6.56472073	    -15.45301935
      4.76000000	     -9.36707774	     -8.83522023	     11.71718754	     -0.46586867	     -0.05878929	      0.56594847	     39.05993110	      2.68516431	    -20.62085029	    -25.35403717	     -8.92765131	     -7.51303167	     -0.49938674	     -3.96199396	    -11.17109185	     -9.49191910	    -30.84938018	      9.05291283	     29.88085980	      8.24242085	      9.29806440	      6.98133301	    -15.15199801
      4.76500000	     -9.34838050	     -9.12241881	     11.52129663	     -0.45836000	     -0.05881206	      0.56651584	     39.06542978	      3.23695000	    -20.05527079	    -26.09360088	     -8.81146271	     -8.43030813	     -0.36336218	     -3.49901112	    -11.81527038	     -9.66845644	    -32.37483859	      7.07857855	     29.89966775	      9.79401570	      9.38186000	      7.34219390	    -14.91736329
      4.77000000	     -9.31657639	     -9.39192515	     11.33122461	     -0.45086725	     -0.05870380	      0.56706131	     38.98223215	      3.79165233	    -19.51457091	    -26.70600371	     -8.62911308	     -9.20883404	     -0.07819059	     -3.00387015	    -12.43051190	     -9.75012510	    -33.91711174	      4.93474966	     29.68782556	     11.37100397	      9.45028017	      7.68879579	    -14.68847171
      4.77500000	     -9.31774103	     -9.63478713	     11.19543711	     -0.44350324	     -0.05858149	      0.56767065	     38.89014627	      4.29948817	    -19.08623712	    -27.24681101	     -8.38034672	    -10.01890554	      0.11712782	     -2.36159081	    -13.03834142	     -9.76665650	    -35.60856525	      2.83589982	     29.47645282	     12.26865039	      9.53903497	      7.96696146	    -14.54623033
      4.78000000	     -9.32214872	     -9.87422027	     11.03869940	     -0.43619010	     -0.05836635	      0.56825979	     38.73602123	      4.82196020	    -18.67983952	    -27.66900871	     -8.09264044	    -10.68203357	      0.37700049	     -1.66380542	    -13.62440267	     -9.74157288	    -37.32620795	      0.67894541	     29.00880600	     13.07411082	      9.62512260	      8.25341836	    -14.37667928
      4.78500000	     -9.31009458	    -10.08828725	     10.90223130	     -0.42897345	     -0.05806494	      0.56886008	     38.51135901	      5.31475796	    -18.33858466	    -28.00772595	     -7.72175597	    -11.21110854	      0.68775752	     -0.91501706	    -14.18023761	     -9.65861609	    -39.08350240	     -1.44938460	     28.36633275	     13.65153663	      9.68052339	      8.50504771	    -14.22227593
      4.79000000	     -9.28231831	    -10.29834830	     10.77711706	     -0.42189159	     -0.05769631	      0.56945824	     38.22525681	      5.80212160	    -18.03424218	    -28.26326045	     -7.29669796	    -11.60900506	      0.98130179	     -0.10472783	    -14.72427617	     -9.52880762	    -40.90452351	     -3.43877093	     27.56746050	     13.85116128	      9.70247079	      8.75329431	    -14.09090064
      4.79500000	     -9.19720130	    -10.51085130	     10.64349338	     -0.41481476	     -0.05719317	      0.57003209	     37.82298401	      6.30813395	    -17.79846713	    -28.43782122	     -6.77583416	    -11.83667777	      1.10293086	      0.67968051	    -15.25803901	     -9.37661347	    -42.73622614	     -5.24638329	     26.59555015	     13.58808714	      9.66738290	      9.01984362	    -13.91463028
      4.80000000	     -9.15915267	    -10.74803610	     10.53519723	     -0.40786967	     -0.05669323	      0.57064603	     37.44019415	      6.81682044	    -17.60328673	    -28.53189110	     -6.29593598	    -12.08485309	      1.22638637	      1.60599642	    -15.80058469	     -9.15889232	    -44.61069503	     -6.87940869	     25.48095362	     13.28230484	      9.68134447	      9.28199305	    -13.79688073
      4.80500000	     -9.25521249	    -11.01376670	     10.48964664	     -0.40110007	     -0.05627372	      0.57119298	     37.17264761	      7.27112458	    -17.50733569	    -28.54116027	     -5.88835758	    -12.36417134	      1.51816516	      2.80462142	    -16.32092022	     -8.78056277	    -46.56319879	     -8.26568750	     24.31403187	     12.75287958	      9.84581961	      9.53608196	    -13.81774944
